<svg xmlns="http://www.w3.org/2000/svg" width="57" height="45" viewBox="0 0 57 45" fill="none">
  <path d="M42.6421 7.90443C39.2051 7.90102 35.8826 9.17223 33.2875 11.4837C30.6923 13.7951 28.9994 16.9909 28.5209 20.4819V0.389802C28.521 0.34581 28.5083 0.302792 28.4843 0.266317C28.4603 0.229842 28.4262 0.20159 28.3864 0.185217C28.3466 0.168845 28.3029 0.165106 28.261 0.174486C28.2191 0.183865 28.1809 0.20593 28.1514 0.237825L19.8108 9.05066C18.0535 8.29143 16.1655 7.90165 14.2587 7.90443C6.38757 7.90443 0 14.4321 0 22.4851C0 30.538 6.384 37.0657 14.2605 37.0657C17.6973 37.0692 21.0195 35.7982 23.6146 33.4872C26.2097 31.1761 27.9028 27.9807 28.3817 24.4901V44.5803C28.3817 44.7781 28.6155 44.8733 28.7494 44.7323L37.0918 35.9195C38.8486 36.6785 40.7359 37.0683 42.6421 37.0657C50.5168 37.0657 56.9008 30.538 56.9008 22.4851C56.9008 14.4321 50.5168 7.90443 42.6421 7.90443Z" fill="white"/>
</svg>