<svg xmlns="http://www.w3.org/2000/svg" width="133" height="34" viewBox="0 0 133 34" fill="none">
  <rect x="110.841" y="8.32312" width="18.6972" height="17.2417" fill="white"/>
  <path fill-rule="evenodd" clip-rule="evenodd" d="M108.389 10.4135C108.389 7.53176 110.725 5.19568 113.607 5.19568H126.795C129.677 5.19568 132.013 7.53176 132.013 10.4135V23.6013C132.013 26.483 129.677 28.8191 126.795 28.8191H113.607C110.725 28.8191 108.389 26.483 108.389 23.6013V10.4135ZM126.469 13.4554C127.191 13.4554 127.776 12.8703 127.776 12.1486C127.776 11.4268 127.191 10.8418 126.469 10.8418C125.747 10.8418 125.162 11.4268 125.162 12.1486C125.162 12.8703 125.747 13.4554 126.469 13.4554ZM117.037 14.2999C117.302 13.4343 117.812 13.1522 118.108 13.1522C118.405 13.1522 118.912 13.433 119.178 14.2967L119.178 14.2979L121.112 20.5304L121.112 20.5319C121.521 21.8611 122.591 23.1172 124.134 23.1172C125.988 23.1172 127.49 21.6146 127.49 19.7609V15.4938C127.49 14.9298 127.033 14.4725 126.469 14.4725C125.905 14.4725 125.448 14.9298 125.448 15.4938V19.7609C125.448 20.4865 124.86 21.0746 124.134 21.0746C123.838 21.0746 123.329 20.7934 123.064 19.9302L123.064 19.9289L121.13 13.6964L121.13 13.6953C120.721 12.3664 119.653 11.1096 118.108 11.1096C116.563 11.1096 115.493 12.369 115.084 13.6999L115.084 13.7017L112.574 21.7934C112.407 22.3321 112.708 22.9043 113.247 23.0714C113.786 23.2385 114.358 22.9372 114.525 22.3985L117.036 14.3016L117.037 14.2999Z" fill="black"/>
  <path fill-rule="evenodd" clip-rule="evenodd" d="M108.389 10.4135C108.389 7.53176 110.725 5.19568 113.607 5.19568H126.795C129.677 5.19568 132.013 7.53176 132.013 10.4135V23.6013C132.013 26.483 129.677 28.8191 126.795 28.8191H113.607C110.725 28.8191 108.389 26.483 108.389 23.6013V10.4135ZM126.469 13.4554C127.191 13.4554 127.776 12.8703 127.776 12.1486C127.776 11.4268 127.191 10.8418 126.469 10.8418C125.747 10.8418 125.162 11.4268 125.162 12.1486C125.162 12.8703 125.747 13.4554 126.469 13.4554ZM117.037 14.2999C117.302 13.4343 117.812 13.1522 118.108 13.1522C118.405 13.1522 118.912 13.433 119.178 14.2967L119.178 14.2979L121.112 20.5304L121.112 20.5319C121.521 21.8611 122.591 23.1172 124.134 23.1172C125.988 23.1172 127.49 21.6146 127.49 19.7609V15.4938C127.49 14.9298 127.033 14.4725 126.469 14.4725C125.905 14.4725 125.448 14.9298 125.448 15.4938V19.7609C125.448 20.4865 124.86 21.0746 124.134 21.0746C123.838 21.0746 123.329 20.7934 123.064 19.9302L123.064 19.9289L121.13 13.6964L121.13 13.6953C120.721 12.3664 119.653 11.1096 118.108 11.1096C116.563 11.1096 115.493 12.369 115.084 13.6999L115.084 13.7017L112.574 21.7934C112.407 22.3321 112.708 22.9043 113.247 23.0714C113.786 23.2385 114.358 22.9372 114.525 22.3985L117.036 14.3016L117.037 14.2999Z" fill="black"/>
  <path fill-rule="evenodd" clip-rule="evenodd" d="M108.389 10.4135C108.389 7.53176 110.725 5.19568 113.607 5.19568H126.795C129.677 5.19568 132.013 7.53176 132.013 10.4135V23.6013C132.013 26.483 129.677 28.8191 126.795 28.8191H113.607C110.725 28.8191 108.389 26.483 108.389 23.6013V10.4135ZM126.469 13.4554C127.191 13.4554 127.776 12.8703 127.776 12.1486C127.776 11.4268 127.191 10.8418 126.469 10.8418C125.747 10.8418 125.162 11.4268 125.162 12.1486C125.162 12.8703 125.747 13.4554 126.469 13.4554ZM117.037 14.2999C117.302 13.4343 117.812 13.1522 118.108 13.1522C118.405 13.1522 118.912 13.433 119.178 14.2967L119.178 14.2979L121.112 20.5304L121.112 20.5319C121.521 21.8611 122.591 23.1172 124.134 23.1172C125.988 23.1172 127.49 21.6146 127.49 19.7609V15.4938C127.49 14.9298 127.033 14.4725 126.469 14.4725C125.905 14.4725 125.448 14.9298 125.448 15.4938V19.7609C125.448 20.4865 124.86 21.0746 124.134 21.0746C123.838 21.0746 123.329 20.7934 123.064 19.9302L123.064 19.9289L121.13 13.6964L121.13 13.6953C120.721 12.3664 119.653 11.1096 118.108 11.1096C116.563 11.1096 115.493 12.369 115.084 13.6999L115.084 13.7017L112.574 21.7934C112.407 22.3321 112.708 22.9043 113.247 23.0714C113.786 23.2385 114.358 22.9372 114.525 22.3985L117.036 14.3016L117.037 14.2999Z" fill="url(#paint0_linear_2299_425)"/>
  <path fill-rule="evenodd" clip-rule="evenodd" d="M22.7654 8.00321C22.7654 8.49674 22.5732 8.97006 22.2311 9.31905C21.889 9.66803 21.4249 9.86408 20.9411 9.86408C20.4573 9.86408 19.9933 9.66803 19.6512 9.31905C19.309 8.97006 19.1168 8.49674 19.1168 8.00321C19.1168 7.50967 19.309 7.03635 19.6512 6.68737C19.9933 6.33839 20.4573 6.14233 20.9411 6.14233C21.4249 6.14233 21.889 6.33839 22.2311 6.68737C22.5732 7.03635 22.7654 7.50967 22.7654 8.00321ZM44.2366 6.41815V27.8226C44.2366 27.9353 44.3265 28.026 44.4369 28.026H47.0029C47.0292 28.0261 47.0553 28.021 47.0796 28.0108C47.104 28.0007 47.1262 27.9857 47.1449 27.9669C47.1636 27.948 47.1784 27.9255 47.1886 27.9008C47.1988 27.876 47.2041 27.8495 47.2043 27.8226V6.41815C47.2037 6.36431 47.1824 6.31286 47.1449 6.27498C47.1073 6.2371 47.0567 6.21585 47.0039 6.21585H44.4369C44.384 6.21585 44.3332 6.23724 44.2956 6.27535C44.2581 6.31345 44.2368 6.36517 44.2366 6.4192V6.41815ZM13.1252 13.9263V6.42441C13.1252 6.31179 13.2152 6.22002 13.3256 6.22002H15.8925C16.0029 6.22002 16.0929 6.31179 16.0929 6.42441V27.8279C16.0929 27.8821 16.0718 27.9341 16.0342 27.9724C15.9966 28.0107 15.9457 28.0322 15.8925 28.0322H13.3266C13.3002 28.0324 13.274 28.0272 13.2496 28.017C13.2252 28.0068 13.203 27.9917 13.1842 27.9728C13.1655 27.9538 13.1507 27.9312 13.1405 27.9063C13.1304 27.8814 13.1252 27.8548 13.1252 27.8279V25.9821C11.8944 27.4107 10.1503 28.2919 8.00863 28.2919C3.59233 28.2919 0 24.5524 0 19.9558C0 15.3581 3.59233 11.6186 8.00863 11.6186C10.1493 11.6186 11.8944 12.4987 13.1252 13.9273V13.9263ZM3.25497 19.9558C3.25497 22.8506 5.39156 25.2063 8.17219 25.2063C10.9549 25.2063 12.8369 22.8495 12.8369 19.9547C12.8369 17.0599 10.9549 14.7042 8.17321 14.7042C5.39156 14.7042 3.25497 17.061 3.25497 19.9558ZM53.5363 13.9253C54.7672 12.4966 56.5112 11.6155 58.6529 11.6155C63.0692 11.6155 66.6615 15.356 66.6615 19.9526C66.6615 24.5493 63.0692 28.2898 58.6529 28.2898C56.5122 28.2898 54.7672 27.4097 53.5363 25.9811V33.6665C53.5363 33.7207 53.5152 33.7727 53.4777 33.811C53.4401 33.8493 53.3891 33.8709 53.336 33.8709H50.769C50.7159 33.8709 50.6649 33.8493 50.6273 33.811C50.5897 33.7727 50.5686 33.7207 50.5686 33.6665V12.2641C50.5686 12.1515 50.6576 12.0597 50.769 12.0597H53.3349C53.4464 12.0597 53.5363 12.1515 53.5363 12.2641V13.9263V13.9253ZM53.8246 19.9526C53.8246 22.8485 55.7067 25.2042 58.4883 25.2042C61.27 25.2042 63.4066 22.8475 63.4066 19.9526C63.4066 17.0568 61.27 14.7011 58.4893 14.7011C55.7067 14.7011 53.8246 17.0578 53.8246 19.9526ZM37.9055 13.9273V12.2641C37.9055 12.1515 37.9945 12.0597 38.1049 12.0597H40.6718C40.7833 12.0597 40.8722 12.1515 40.8722 12.2641V27.8289C40.8722 27.8557 40.867 27.8823 40.857 27.9071C40.8469 27.9319 40.8321 27.9544 40.8135 27.9734C40.7949 27.9924 40.7728 28.0075 40.7485 28.0177C40.7242 28.028 40.6981 28.0333 40.6718 28.0333H38.1059C38.0795 28.0334 38.0533 28.0282 38.0289 28.018C38.0045 28.0078 37.9823 27.9928 37.9635 27.9738C37.9448 27.9548 37.93 27.9322 37.9198 27.9074C37.9097 27.8825 37.9045 27.8558 37.9045 27.8289V25.9842C36.6737 27.4128 34.9296 28.294 32.7879 28.294C28.3716 28.294 24.7793 24.5535 24.7793 19.9568C24.7793 15.3591 28.3716 11.6196 32.7879 11.6196C34.9286 11.6196 36.6726 12.4998 37.9045 13.9284L37.9055 13.9273ZM28.0343 19.9547C28.0343 22.8506 30.1709 25.2063 32.9525 25.2063C35.7342 25.2063 37.6162 22.8495 37.6162 19.9547C37.6162 17.0599 35.7352 14.7042 32.9525 14.7042C30.1709 14.7042 28.0353 17.061 28.0353 19.9558L28.0343 19.9547ZM81.403 12.263V13.9273C80.1721 12.4987 78.4271 11.6186 76.2864 11.6186C71.8701 11.6186 68.2778 15.3581 68.2778 19.9558C68.2778 24.5524 71.8701 28.2929 76.2864 28.2929C78.4271 28.2929 80.1721 27.4118 81.403 25.9831V27.8289C81.403 27.9415 81.4929 28.0322 81.6033 28.0322H84.1703C84.2234 28.0322 84.2744 28.0107 84.312 27.9724C84.3496 27.9341 84.3707 27.8821 84.3707 27.8279V12.2641C84.3707 12.2099 84.3496 12.1579 84.312 12.1196C84.2744 12.0812 84.2234 12.0597 84.1703 12.0597H81.6033C81.5502 12.0597 81.4992 12.0812 81.4617 12.1196C81.4241 12.1579 81.403 12.2099 81.403 12.2641V12.263ZM76.451 25.2063C73.6683 25.2063 71.5327 22.8506 71.5327 19.9558C71.5327 17.0599 73.6683 14.7042 76.451 14.7042C79.2326 14.7042 81.1147 17.0599 81.1147 19.9547C81.1147 22.8506 79.2326 25.2063 76.451 25.2063ZM99.475 6.42441V13.9273C98.2442 12.4987 96.4991 11.6186 94.3585 11.6186C89.9422 11.6186 86.3498 15.3581 86.3498 19.9558C86.3498 24.5524 89.9422 28.2919 94.3585 28.2919C96.4991 28.2919 98.2442 27.4118 99.475 25.9831V27.8279C99.475 27.9405 99.565 28.0322 99.6754 28.0322H102.242C102.296 28.0322 102.346 28.0107 102.384 27.9724C102.422 27.9341 102.443 27.8821 102.443 27.8279V6.42441C102.443 6.3702 102.422 6.31822 102.384 6.27989C102.346 6.24156 102.296 6.22002 102.242 6.22002H99.6754C99.6222 6.22002 99.5713 6.24156 99.5337 6.27989C99.4961 6.31822 99.475 6.3702 99.475 6.42441ZM94.523 25.2063C91.7414 25.2063 89.6048 22.8506 89.6048 19.9558C89.6048 17.0599 91.7414 14.7042 94.523 14.7042C97.3047 14.7042 99.1867 17.0599 99.1867 19.9547C99.1867 22.8506 97.3047 25.2063 94.523 25.2063ZM19.4573 27.8226V12.263C19.4573 12.1504 19.5472 12.0587 19.6576 12.0587H22.2246C22.335 12.0587 22.425 12.1504 22.425 12.263V27.8216C22.425 27.8758 22.4039 27.9278 22.3663 27.9661C22.3287 28.0045 22.2777 28.026 22.2246 28.026H19.6576C19.6047 28.026 19.5539 28.0046 19.5163 27.9665C19.4788 27.9284 19.4575 27.8767 19.4573 27.8226Z" fill="black"/>
  <defs>
    <linearGradient id="paint0_linear_2299_425" x1="108.981" y1="-4.24908" x2="120.201" y2="26.8093" gradientUnits="userSpaceOnUse">
      <stop offset="0.254487" stop-color="#F40FB9"/>
      <stop offset="0.447627" stop-color="#B830DC"/>
      <stop offset="0.653005" stop-color="#9445F1"/>
      <stop offset="0.848984" stop-color="#7C52FF"/>
      <stop offset="1" stop-color="#6C42EE"/>
    </linearGradient>
  </defs>
</svg>